<mxfile host="app.diagrams.net" agent="Mozilla/5.0 (X11; Linux x86_64) AppleWebKit/537.36 (KHTML, like Gecko) Chrome/129.0.0.0 Safari/537.36" version="24.7.17">
  <diagram id="C5RBs43oDa-KdzZeNtuy" name="Page-1">
    <mxGraphModel dx="1291" dy="1191" grid="1" gridSize="10" guides="1" tooltips="1" connect="1" arrows="1" fold="1" page="1" pageScale="1" pageWidth="827" pageHeight="1169" math="0" shadow="0">
      <root>
        <mxCell id="WIyWlLk6GJQsqaUBKTNV-0" />
        <mxCell id="WIyWlLk6GJQsqaUBKTNV-1" parent="WIyWlLk6GJQsqaUBKTNV-0" />
        <mxCell id="JVNppjv7HDDPwRTu12f4-76" style="edgeStyle=orthogonalEdgeStyle;rounded=0;orthogonalLoop=1;jettySize=auto;html=1;entryX=1;entryY=0.5;entryDx=0;entryDy=0;endArrow=diamondThin;endFill=1;" edge="1" parent="WIyWlLk6GJQsqaUBKTNV-1" source="JVNppjv7HDDPwRTu12f4-0" target="JVNppjv7HDDPwRTu12f4-71">
          <mxGeometry relative="1" as="geometry" />
        </mxCell>
        <mxCell id="JVNppjv7HDDPwRTu12f4-77" style="edgeStyle=orthogonalEdgeStyle;rounded=0;orthogonalLoop=1;jettySize=auto;html=1;entryX=1;entryY=0.5;entryDx=0;entryDy=0;endArrow=diamondThin;endFill=1;exitX=0.995;exitY=0.25;exitDx=0;exitDy=0;exitPerimeter=0;" edge="1" parent="WIyWlLk6GJQsqaUBKTNV-1" source="JVNppjv7HDDPwRTu12f4-2" target="JVNppjv7HDDPwRTu12f4-17">
          <mxGeometry relative="1" as="geometry">
            <Array as="points">
              <mxPoint x="774" y="825" />
              <mxPoint x="774" y="601" />
            </Array>
          </mxGeometry>
        </mxCell>
        <mxCell id="JVNppjv7HDDPwRTu12f4-0" value="Card" style="swimlane;fontStyle=1;align=center;verticalAlign=top;childLayout=stackLayout;horizontal=1;startSize=26;horizontalStack=0;resizeParent=1;resizeParentMax=0;resizeLast=0;collapsible=1;marginBottom=0;whiteSpace=wrap;html=1;" vertex="1" parent="WIyWlLk6GJQsqaUBKTNV-1">
          <mxGeometry x="543" y="753" width="190" height="104" as="geometry" />
        </mxCell>
        <mxCell id="JVNppjv7HDDPwRTu12f4-1" value="- color: CardColor&lt;div&gt;- symbol: CardSymbol&lt;/div&gt;" style="text;strokeColor=none;fillColor=none;align=left;verticalAlign=top;spacingLeft=4;spacingRight=4;overflow=hidden;rotatable=0;points=[[0,0.5],[1,0.5]];portConstraint=eastwest;whiteSpace=wrap;html=1;" vertex="1" parent="JVNppjv7HDDPwRTu12f4-0">
          <mxGeometry y="26" width="190" height="44" as="geometry" />
        </mxCell>
        <mxCell id="JVNppjv7HDDPwRTu12f4-2" value="" style="line;strokeWidth=1;fillColor=none;align=left;verticalAlign=middle;spacingTop=-1;spacingLeft=3;spacingRight=3;rotatable=0;labelPosition=right;points=[];portConstraint=eastwest;strokeColor=inherit;" vertex="1" parent="JVNppjv7HDDPwRTu12f4-0">
          <mxGeometry y="70" width="190" height="8" as="geometry" />
        </mxCell>
        <mxCell id="JVNppjv7HDDPwRTu12f4-3" value="+ Card(CardColor, CardSymbol)" style="text;strokeColor=none;fillColor=none;align=left;verticalAlign=top;spacingLeft=4;spacingRight=4;overflow=hidden;rotatable=0;points=[[0,0.5],[1,0.5]];portConstraint=eastwest;whiteSpace=wrap;html=1;" vertex="1" parent="JVNppjv7HDDPwRTu12f4-0">
          <mxGeometry y="78" width="190" height="26" as="geometry" />
        </mxCell>
        <mxCell id="JVNppjv7HDDPwRTu12f4-4" value="Deck" style="swimlane;fontStyle=1;align=center;verticalAlign=top;childLayout=stackLayout;horizontal=1;startSize=26;horizontalStack=0;resizeParent=1;resizeParentMax=0;resizeLast=0;collapsible=1;marginBottom=0;whiteSpace=wrap;html=1;" vertex="1" parent="WIyWlLk6GJQsqaUBKTNV-1">
          <mxGeometry x="73" y="727" width="200" height="130" as="geometry" />
        </mxCell>
        <mxCell id="JVNppjv7HDDPwRTu12f4-5" value="- drawPile: CardPile&lt;div&gt;- discardPile: CardPile&lt;/div&gt;" style="text;strokeColor=none;fillColor=none;align=left;verticalAlign=top;spacingLeft=4;spacingRight=4;overflow=hidden;rotatable=0;points=[[0,0.5],[1,0.5]];portConstraint=eastwest;whiteSpace=wrap;html=1;" vertex="1" parent="JVNppjv7HDDPwRTu12f4-4">
          <mxGeometry y="26" width="200" height="44" as="geometry" />
        </mxCell>
        <mxCell id="JVNppjv7HDDPwRTu12f4-6" value="" style="line;strokeWidth=1;fillColor=none;align=left;verticalAlign=middle;spacingTop=-1;spacingLeft=3;spacingRight=3;rotatable=0;labelPosition=right;points=[];portConstraint=eastwest;strokeColor=inherit;" vertex="1" parent="JVNppjv7HDDPwRTu12f4-4">
          <mxGeometry y="70" width="200" height="8" as="geometry" />
        </mxCell>
        <mxCell id="JVNppjv7HDDPwRTu12f4-7" value="+ drawCards(int): void&lt;div&gt;+ discardCards(List&amp;lt;Cards&amp;gt;): void&lt;/div&gt;" style="text;strokeColor=none;fillColor=none;align=left;verticalAlign=top;spacingLeft=4;spacingRight=4;overflow=hidden;rotatable=0;points=[[0,0.5],[1,0.5]];portConstraint=eastwest;whiteSpace=wrap;html=1;" vertex="1" parent="JVNppjv7HDDPwRTu12f4-4">
          <mxGeometry y="78" width="200" height="52" as="geometry" />
        </mxCell>
        <mxCell id="JVNppjv7HDDPwRTu12f4-63" style="edgeStyle=orthogonalEdgeStyle;rounded=0;orthogonalLoop=1;jettySize=auto;html=1;entryX=1;entryY=0.5;entryDx=0;entryDy=0;endArrow=diamondThin;endFill=1;" edge="1" parent="WIyWlLk6GJQsqaUBKTNV-1" source="JVNppjv7HDDPwRTu12f4-8" target="JVNppjv7HDDPwRTu12f4-44">
          <mxGeometry relative="1" as="geometry" />
        </mxCell>
        <mxCell id="JVNppjv7HDDPwRTu12f4-8" value="Game" style="swimlane;fontStyle=1;align=center;verticalAlign=top;childLayout=stackLayout;horizontal=1;startSize=26;horizontalStack=0;resizeParent=1;resizeParentMax=0;resizeLast=0;collapsible=1;marginBottom=0;whiteSpace=wrap;html=1;" vertex="1" parent="WIyWlLk6GJQsqaUBKTNV-1">
          <mxGeometry x="328" y="545" width="160" height="174" as="geometry" />
        </mxCell>
        <mxCell id="JVNppjv7HDDPwRTu12f4-9" value="- gameState: GameState&lt;div&gt;- gameRules: GameRules&lt;/div&gt;&lt;div&gt;- currentPlayerIndex: int&lt;/div&gt;&lt;div&gt;- players: List&amp;lt;Player&amp;gt;&lt;/div&gt;&lt;div&gt;- deck: Deck&lt;/div&gt;&lt;div&gt;- currentRound: int&lt;/div&gt;&lt;div&gt;- isOrderReversed: boolean&lt;/div&gt;" style="text;strokeColor=none;fillColor=none;align=left;verticalAlign=top;spacingLeft=4;spacingRight=4;overflow=hidden;rotatable=0;points=[[0,0.5],[1,0.5]];portConstraint=eastwest;whiteSpace=wrap;html=1;" vertex="1" parent="JVNppjv7HDDPwRTu12f4-8">
          <mxGeometry y="26" width="160" height="114" as="geometry" />
        </mxCell>
        <mxCell id="JVNppjv7HDDPwRTu12f4-10" value="" style="line;strokeWidth=1;fillColor=none;align=left;verticalAlign=middle;spacingTop=-1;spacingLeft=3;spacingRight=3;rotatable=0;labelPosition=right;points=[];portConstraint=eastwest;strokeColor=inherit;" vertex="1" parent="JVNppjv7HDDPwRTu12f4-8">
          <mxGeometry y="140" width="160" height="8" as="geometry" />
        </mxCell>
        <mxCell id="JVNppjv7HDDPwRTu12f4-11" value="+ method(type): type" style="text;strokeColor=none;fillColor=none;align=left;verticalAlign=top;spacingLeft=4;spacingRight=4;overflow=hidden;rotatable=0;points=[[0,0.5],[1,0.5]];portConstraint=eastwest;whiteSpace=wrap;html=1;" vertex="1" parent="JVNppjv7HDDPwRTu12f4-8">
          <mxGeometry y="148" width="160" height="26" as="geometry" />
        </mxCell>
        <mxCell id="JVNppjv7HDDPwRTu12f4-79" style="edgeStyle=orthogonalEdgeStyle;rounded=0;orthogonalLoop=1;jettySize=auto;html=1;entryX=0;entryY=0.5;entryDx=0;entryDy=0;endArrow=diamondThin;endFill=1;" edge="1" parent="WIyWlLk6GJQsqaUBKTNV-1">
          <mxGeometry relative="1" as="geometry">
            <mxPoint x="258" y="603" as="sourcePoint" />
            <mxPoint x="328" y="628" as="targetPoint" />
            <Array as="points">
              <mxPoint x="300" y="603" />
              <mxPoint x="300" y="628" />
            </Array>
          </mxGeometry>
        </mxCell>
        <mxCell id="JVNppjv7HDDPwRTu12f4-12" value="GameRules" style="swimlane;fontStyle=1;align=center;verticalAlign=top;childLayout=stackLayout;horizontal=1;startSize=26;horizontalStack=0;resizeParent=1;resizeParentMax=0;resizeLast=0;collapsible=1;marginBottom=0;whiteSpace=wrap;html=1;" vertex="1" parent="WIyWlLk6GJQsqaUBKTNV-1">
          <mxGeometry x="88" y="513" width="170" height="180" as="geometry" />
        </mxCell>
        <mxCell id="JVNppjv7HDDPwRTu12f4-13" value="- jumpIn: boolean&lt;div&gt;- drawStacking: boolean&lt;/div&gt;&lt;div&gt;- sevenO: boolean&lt;/div&gt;&lt;div&gt;- wildFourChallenge: boolean&lt;/div&gt;&lt;div&gt;- pointGoal: int&lt;/div&gt;" style="text;strokeColor=none;fillColor=none;align=left;verticalAlign=top;spacingLeft=4;spacingRight=4;overflow=hidden;rotatable=0;points=[[0,0.5],[1,0.5]];portConstraint=eastwest;whiteSpace=wrap;html=1;" vertex="1" parent="JVNppjv7HDDPwRTu12f4-12">
          <mxGeometry y="26" width="170" height="84" as="geometry" />
        </mxCell>
        <mxCell id="JVNppjv7HDDPwRTu12f4-14" value="" style="line;strokeWidth=1;fillColor=none;align=left;verticalAlign=middle;spacingTop=-1;spacingLeft=3;spacingRight=3;rotatable=0;labelPosition=right;points=[];portConstraint=eastwest;strokeColor=inherit;" vertex="1" parent="JVNppjv7HDDPwRTu12f4-12">
          <mxGeometry y="110" width="170" height="8" as="geometry" />
        </mxCell>
        <mxCell id="JVNppjv7HDDPwRTu12f4-15" value="GameRules(boolean, boolean, boolean, boolean, int)" style="text;strokeColor=none;fillColor=none;align=left;verticalAlign=top;spacingLeft=4;spacingRight=4;overflow=hidden;rotatable=0;points=[[0,0.5],[1,0.5]];portConstraint=eastwest;whiteSpace=wrap;html=1;" vertex="1" parent="JVNppjv7HDDPwRTu12f4-12">
          <mxGeometry y="118" width="170" height="62" as="geometry" />
        </mxCell>
        <mxCell id="JVNppjv7HDDPwRTu12f4-66" style="edgeStyle=orthogonalEdgeStyle;rounded=0;orthogonalLoop=1;jettySize=auto;html=1;endArrow=diamondThin;endFill=1;" edge="1" parent="WIyWlLk6GJQsqaUBKTNV-1" source="JVNppjv7HDDPwRTu12f4-16" target="JVNppjv7HDDPwRTu12f4-9">
          <mxGeometry relative="1" as="geometry" />
        </mxCell>
        <mxCell id="JVNppjv7HDDPwRTu12f4-67" style="edgeStyle=orthogonalEdgeStyle;rounded=0;orthogonalLoop=1;jettySize=auto;html=1;" edge="1" parent="WIyWlLk6GJQsqaUBKTNV-1" source="JVNppjv7HDDPwRTu12f4-16" target="JVNppjv7HDDPwRTu12f4-59">
          <mxGeometry relative="1" as="geometry">
            <Array as="points">
              <mxPoint x="638" y="514" />
              <mxPoint x="758" y="514" />
              <mxPoint x="758" y="409" />
            </Array>
          </mxGeometry>
        </mxCell>
        <mxCell id="JVNppjv7HDDPwRTu12f4-16" value="Player" style="swimlane;fontStyle=1;align=center;verticalAlign=top;childLayout=stackLayout;horizontal=1;startSize=26;horizontalStack=0;resizeParent=1;resizeParentMax=0;resizeLast=0;collapsible=1;marginBottom=0;whiteSpace=wrap;html=1;" vertex="1" parent="WIyWlLk6GJQsqaUBKTNV-1">
          <mxGeometry x="523" y="528" width="230" height="200" as="geometry" />
        </mxCell>
        <mxCell id="JVNppjv7HDDPwRTu12f4-17" value="&lt;div&gt;- lastDrawnCard: Card&lt;/div&gt;- hand: List&amp;lt;Cards&amp;gt;&lt;div&gt;- selectedCards: List&amp;lt;Cards&amp;gt;&lt;br&gt;&lt;div&gt;- playerName: String&lt;/div&gt;&lt;div&gt;- hasSaidUno: boolean&lt;/div&gt;&lt;div&gt;- playsThisTurn: boolean&lt;/div&gt;&lt;/div&gt;" style="text;strokeColor=none;fillColor=none;align=left;verticalAlign=top;spacingLeft=4;spacingRight=4;overflow=hidden;rotatable=0;points=[[0,0.5],[1,0.5]];portConstraint=eastwest;whiteSpace=wrap;html=1;" vertex="1" parent="JVNppjv7HDDPwRTu12f4-16">
          <mxGeometry y="26" width="230" height="94" as="geometry" />
        </mxCell>
        <mxCell id="JVNppjv7HDDPwRTu12f4-18" value="" style="line;strokeWidth=1;fillColor=none;align=left;verticalAlign=middle;spacingTop=-1;spacingLeft=3;spacingRight=3;rotatable=0;labelPosition=right;points=[];portConstraint=eastwest;strokeColor=inherit;" vertex="1" parent="JVNppjv7HDDPwRTu12f4-16">
          <mxGeometry y="120" width="230" height="8" as="geometry" />
        </mxCell>
        <mxCell id="JVNppjv7HDDPwRTu12f4-19" value="+ drawCards(Deck, int): void&lt;div&gt;+ discardCards(Deck, List&amp;lt;Cards&amp;gt;): void&lt;/div&gt;&lt;div&gt;+ challengePlayer(Player): void&lt;/div&gt;&lt;div&gt;+ sayUno(): void&lt;/div&gt;" style="text;strokeColor=none;fillColor=none;align=left;verticalAlign=top;spacingLeft=4;spacingRight=4;overflow=hidden;rotatable=0;points=[[0,0.5],[1,0.5]];portConstraint=eastwest;whiteSpace=wrap;html=1;" vertex="1" parent="JVNppjv7HDDPwRTu12f4-16">
          <mxGeometry y="128" width="230" height="72" as="geometry" />
        </mxCell>
        <mxCell id="JVNppjv7HDDPwRTu12f4-47" value="" style="edgeStyle=orthogonalEdgeStyle;rounded=0;orthogonalLoop=1;jettySize=auto;html=1;" edge="1" parent="WIyWlLk6GJQsqaUBKTNV-1" source="JVNppjv7HDDPwRTu12f4-43" target="JVNppjv7HDDPwRTu12f4-20">
          <mxGeometry relative="1" as="geometry" />
        </mxCell>
        <mxCell id="JVNppjv7HDDPwRTu12f4-20" value="Server" style="swimlane;fontStyle=1;align=center;verticalAlign=top;childLayout=stackLayout;horizontal=1;startSize=26;horizontalStack=0;resizeParent=1;resizeParentMax=0;resizeLast=0;collapsible=1;marginBottom=0;whiteSpace=wrap;html=1;points=[[0,0,0,0,0],[0,0.25,0,0,0],[0,0.5,0,0,0],[0,0.75,0,0,0],[0,1,0,0,0],[0.25,0,0,0,0],[0.25,1,0,0,0],[0.5,0,0,0,0],[0.5,1,0,0,0],[0.75,0,0,0,0],[0.75,1,0,0,0],[1,0,0,0,0],[1,0.25,0,0,0],[1,0.5,0,0,0],[1,0.75,0,0,0],[1,1,0,0,0]];" vertex="1" parent="WIyWlLk6GJQsqaUBKTNV-1">
          <mxGeometry x="58" y="180" width="230" height="130" as="geometry" />
        </mxCell>
        <mxCell id="JVNppjv7HDDPwRTu12f4-21" value="- serverSocket: ServerSocket&lt;div&gt;- connectedClients: List&amp;lt;ClientManager&amp;gt;&lt;/div&gt;&lt;div&gt;# serverLogger: Logger&lt;/div&gt;" style="text;strokeColor=none;fillColor=none;align=left;verticalAlign=top;spacingLeft=4;spacingRight=4;overflow=hidden;rotatable=0;points=[[0,0.5],[1,0.5]];portConstraint=eastwest;whiteSpace=wrap;html=1;" vertex="1" parent="JVNppjv7HDDPwRTu12f4-20">
          <mxGeometry y="26" width="230" height="54" as="geometry" />
        </mxCell>
        <mxCell id="JVNppjv7HDDPwRTu12f4-22" value="" style="line;strokeWidth=1;fillColor=none;align=left;verticalAlign=middle;spacingTop=-1;spacingLeft=3;spacingRight=3;rotatable=0;labelPosition=right;points=[];portConstraint=eastwest;strokeColor=inherit;" vertex="1" parent="JVNppjv7HDDPwRTu12f4-20">
          <mxGeometry y="80" width="230" height="8" as="geometry" />
        </mxCell>
        <mxCell id="JVNppjv7HDDPwRTu12f4-23" value="&lt;div&gt;+ startServer(int): void&lt;/div&gt;&lt;div&gt;+ stopServer(): void&lt;/div&gt;&lt;div&gt;&lt;br&gt;&lt;/div&gt;" style="text;strokeColor=none;fillColor=none;align=left;verticalAlign=top;spacingLeft=4;spacingRight=4;overflow=hidden;rotatable=0;points=[[0,0.5],[1,0.5]];portConstraint=eastwest;whiteSpace=wrap;html=1;" vertex="1" parent="JVNppjv7HDDPwRTu12f4-20">
          <mxGeometry y="88" width="230" height="42" as="geometry" />
        </mxCell>
        <mxCell id="JVNppjv7HDDPwRTu12f4-24" value="ClientHandler" style="swimlane;fontStyle=1;align=center;verticalAlign=top;childLayout=stackLayout;horizontal=1;startSize=26;horizontalStack=0;resizeParent=1;resizeParentMax=0;resizeLast=0;collapsible=1;marginBottom=0;whiteSpace=wrap;html=1;" vertex="1" parent="WIyWlLk6GJQsqaUBKTNV-1">
          <mxGeometry x="328" y="185" width="180" height="104" as="geometry" />
        </mxCell>
        <mxCell id="JVNppjv7HDDPwRTu12f4-25" value="- client: Client&lt;div&gt;# clientHandlerLogger: Logger&lt;/div&gt;" style="text;strokeColor=none;fillColor=none;align=left;verticalAlign=top;spacingLeft=4;spacingRight=4;overflow=hidden;rotatable=0;points=[[0,0.5],[1,0.5]];portConstraint=eastwest;whiteSpace=wrap;html=1;" vertex="1" parent="JVNppjv7HDDPwRTu12f4-24">
          <mxGeometry y="26" width="180" height="44" as="geometry" />
        </mxCell>
        <mxCell id="JVNppjv7HDDPwRTu12f4-26" value="" style="line;strokeWidth=1;fillColor=none;align=left;verticalAlign=middle;spacingTop=-1;spacingLeft=3;spacingRight=3;rotatable=0;labelPosition=right;points=[];portConstraint=eastwest;strokeColor=inherit;" vertex="1" parent="JVNppjv7HDDPwRTu12f4-24">
          <mxGeometry y="70" width="180" height="8" as="geometry" />
        </mxCell>
        <mxCell id="JVNppjv7HDDPwRTu12f4-27" value="+ run(): void" style="text;strokeColor=none;fillColor=none;align=left;verticalAlign=top;spacingLeft=4;spacingRight=4;overflow=hidden;rotatable=0;points=[[0,0.5],[1,0.5]];portConstraint=eastwest;whiteSpace=wrap;html=1;" vertex="1" parent="JVNppjv7HDDPwRTu12f4-24">
          <mxGeometry y="78" width="180" height="26" as="geometry" />
        </mxCell>
        <mxCell id="JVNppjv7HDDPwRTu12f4-62" value="" style="edgeStyle=orthogonalEdgeStyle;rounded=0;orthogonalLoop=1;jettySize=auto;html=1;" edge="1" parent="WIyWlLk6GJQsqaUBKTNV-1" source="JVNppjv7HDDPwRTu12f4-58" target="JVNppjv7HDDPwRTu12f4-32">
          <mxGeometry relative="1" as="geometry" />
        </mxCell>
        <mxCell id="JVNppjv7HDDPwRTu12f4-32" value="Client" style="swimlane;fontStyle=1;align=center;verticalAlign=top;childLayout=stackLayout;horizontal=1;startSize=26;horizontalStack=0;resizeParent=1;resizeParentMax=0;resizeLast=0;collapsible=1;marginBottom=0;whiteSpace=wrap;html=1;" vertex="1" parent="WIyWlLk6GJQsqaUBKTNV-1">
          <mxGeometry x="538" y="170" width="200" height="150" as="geometry" />
        </mxCell>
        <mxCell id="JVNppjv7HDDPwRTu12f4-33" value="- clientSocket: Socket&lt;div&gt;- out: PrintWirter&lt;/div&gt;&lt;div&gt;- in: BufferedReader&lt;/div&gt;&lt;div&gt;# clientLogger: Logger&lt;/div&gt;" style="text;strokeColor=none;fillColor=none;align=left;verticalAlign=top;spacingLeft=4;spacingRight=4;overflow=hidden;rotatable=0;points=[[0,0.5],[1,0.5]];portConstraint=eastwest;whiteSpace=wrap;html=1;" vertex="1" parent="JVNppjv7HDDPwRTu12f4-32">
          <mxGeometry y="26" width="200" height="74" as="geometry" />
        </mxCell>
        <mxCell id="JVNppjv7HDDPwRTu12f4-34" value="" style="line;strokeWidth=1;fillColor=none;align=left;verticalAlign=middle;spacingTop=-1;spacingLeft=3;spacingRight=3;rotatable=0;labelPosition=right;points=[];portConstraint=eastwest;strokeColor=inherit;" vertex="1" parent="JVNppjv7HDDPwRTu12f4-32">
          <mxGeometry y="100" width="200" height="8" as="geometry" />
        </mxCell>
        <mxCell id="JVNppjv7HDDPwRTu12f4-35" value="+ startConnection(String, int): void&lt;div&gt;+ stopConnection(): void&lt;/div&gt;" style="text;strokeColor=none;fillColor=none;align=left;verticalAlign=top;spacingLeft=4;spacingRight=4;overflow=hidden;rotatable=0;points=[[0,0.5],[1,0.5]];portConstraint=eastwest;whiteSpace=wrap;html=1;" vertex="1" parent="JVNppjv7HDDPwRTu12f4-32">
          <mxGeometry y="108" width="200" height="42" as="geometry" />
        </mxCell>
        <mxCell id="JVNppjv7HDDPwRTu12f4-43" value="GameServer" style="swimlane;fontStyle=1;align=center;verticalAlign=top;childLayout=stackLayout;horizontal=1;startSize=26;horizontalStack=0;resizeParent=1;resizeParentMax=0;resizeLast=0;collapsible=1;marginBottom=0;whiteSpace=wrap;html=1;points=[[0,0,0,0,0],[0,0.25,0,0,0],[0,0.5,0,0,0],[0,0.75,0,0,0],[0,1,0,0,0],[0.25,0,0,0,0],[0.25,1,0,0,0],[0.5,0,0,0,0],[0.5,1,0,0,0],[0.75,0,0,0,0],[0.75,1,0,0,0],[1,0,0,0,0],[1,0.25,0,0,0],[1,0.5,0,0,0],[1,0.75,0,0,0],[1,1,0,0,0]];" vertex="1" parent="WIyWlLk6GJQsqaUBKTNV-1">
          <mxGeometry x="58" y="341" width="230" height="150" as="geometry" />
        </mxCell>
        <mxCell id="JVNppjv7HDDPwRTu12f4-44" value="- game: Game&lt;div&gt;- serverSocket: ServerSocket&lt;div&gt;- connectedClients: List&amp;lt;ClientManager&amp;gt;&lt;/div&gt;&lt;div&gt;# serverLogger: Logger&lt;/div&gt;&lt;/div&gt;" style="text;strokeColor=none;fillColor=none;align=left;verticalAlign=top;spacingLeft=4;spacingRight=4;overflow=hidden;rotatable=0;points=[[0,0.5],[1,0.5]];portConstraint=eastwest;whiteSpace=wrap;html=1;" vertex="1" parent="JVNppjv7HDDPwRTu12f4-43">
          <mxGeometry y="26" width="230" height="74" as="geometry" />
        </mxCell>
        <mxCell id="JVNppjv7HDDPwRTu12f4-45" value="" style="line;strokeWidth=1;fillColor=none;align=left;verticalAlign=middle;spacingTop=-1;spacingLeft=3;spacingRight=3;rotatable=0;labelPosition=right;points=[];portConstraint=eastwest;strokeColor=inherit;" vertex="1" parent="JVNppjv7HDDPwRTu12f4-43">
          <mxGeometry y="100" width="230" height="8" as="geometry" />
        </mxCell>
        <mxCell id="JVNppjv7HDDPwRTu12f4-46" value="&lt;div&gt;+ startServer(int): void&lt;/div&gt;&lt;div&gt;+ stopServer(): void&lt;/div&gt;&lt;div&gt;&lt;br&gt;&lt;/div&gt;" style="text;strokeColor=none;fillColor=none;align=left;verticalAlign=top;spacingLeft=4;spacingRight=4;overflow=hidden;rotatable=0;points=[[0,0.5],[1,0.5]];portConstraint=eastwest;whiteSpace=wrap;html=1;" vertex="1" parent="JVNppjv7HDDPwRTu12f4-43">
          <mxGeometry y="108" width="230" height="42" as="geometry" />
        </mxCell>
        <mxCell id="JVNppjv7HDDPwRTu12f4-48" value="" style="edgeStyle=orthogonalEdgeStyle;rounded=0;orthogonalLoop=1;jettySize=auto;html=1;endArrow=diamondThin;endFill=1;exitX=0;exitY=0.5;exitDx=0;exitDy=0;" edge="1" parent="WIyWlLk6GJQsqaUBKTNV-1" source="JVNppjv7HDDPwRTu12f4-25" target="JVNppjv7HDDPwRTu12f4-21">
          <mxGeometry relative="1" as="geometry" />
        </mxCell>
        <mxCell id="JVNppjv7HDDPwRTu12f4-53" value="" style="edgeStyle=orthogonalEdgeStyle;rounded=0;orthogonalLoop=1;jettySize=auto;html=1;entryX=1;entryY=0.5;entryDx=0;entryDy=0;endArrow=diamondThin;endFill=0;" edge="1" parent="WIyWlLk6GJQsqaUBKTNV-1" source="JVNppjv7HDDPwRTu12f4-33" target="JVNppjv7HDDPwRTu12f4-25">
          <mxGeometry relative="1" as="geometry" />
        </mxCell>
        <mxCell id="JVNppjv7HDDPwRTu12f4-58" value="GameClient" style="swimlane;fontStyle=1;align=center;verticalAlign=top;childLayout=stackLayout;horizontal=1;startSize=26;horizontalStack=0;resizeParent=1;resizeParentMax=0;resizeLast=0;collapsible=1;marginBottom=0;whiteSpace=wrap;html=1;" vertex="1" parent="WIyWlLk6GJQsqaUBKTNV-1">
          <mxGeometry x="538" y="341" width="200" height="160" as="geometry" />
        </mxCell>
        <mxCell id="JVNppjv7HDDPwRTu12f4-59" value="&lt;div&gt;- player: Player&lt;/div&gt;- clientSocket: Socket&lt;div&gt;- out: PrintWirter&lt;/div&gt;&lt;div&gt;- in: BufferedReader&lt;/div&gt;&lt;div&gt;# clientLogger: Logger&lt;/div&gt;" style="text;strokeColor=none;fillColor=none;align=left;verticalAlign=top;spacingLeft=4;spacingRight=4;overflow=hidden;rotatable=0;points=[[0,0.5],[1,0.5]];portConstraint=eastwest;whiteSpace=wrap;html=1;" vertex="1" parent="JVNppjv7HDDPwRTu12f4-58">
          <mxGeometry y="26" width="200" height="84" as="geometry" />
        </mxCell>
        <mxCell id="JVNppjv7HDDPwRTu12f4-60" value="" style="line;strokeWidth=1;fillColor=none;align=left;verticalAlign=middle;spacingTop=-1;spacingLeft=3;spacingRight=3;rotatable=0;labelPosition=right;points=[];portConstraint=eastwest;strokeColor=inherit;" vertex="1" parent="JVNppjv7HDDPwRTu12f4-58">
          <mxGeometry y="110" width="200" height="8" as="geometry" />
        </mxCell>
        <mxCell id="JVNppjv7HDDPwRTu12f4-61" value="+ startConnection(String, int): void&lt;div&gt;+ stopConnection(): void&lt;/div&gt;" style="text;strokeColor=none;fillColor=none;align=left;verticalAlign=top;spacingLeft=4;spacingRight=4;overflow=hidden;rotatable=0;points=[[0,0.5],[1,0.5]];portConstraint=eastwest;whiteSpace=wrap;html=1;" vertex="1" parent="JVNppjv7HDDPwRTu12f4-58">
          <mxGeometry y="118" width="200" height="42" as="geometry" />
        </mxCell>
        <mxCell id="JVNppjv7HDDPwRTu12f4-68" style="edgeStyle=orthogonalEdgeStyle;rounded=0;orthogonalLoop=1;jettySize=auto;html=1;entryX=0;entryY=0.5;entryDx=0;entryDy=0;endArrow=diamondThin;endFill=1;" edge="1" parent="WIyWlLk6GJQsqaUBKTNV-1" source="JVNppjv7HDDPwRTu12f4-5" target="JVNppjv7HDDPwRTu12f4-9">
          <mxGeometry relative="1" as="geometry">
            <Array as="points">
              <mxPoint x="300" y="775" />
              <mxPoint x="300" y="628" />
            </Array>
          </mxGeometry>
        </mxCell>
        <mxCell id="JVNppjv7HDDPwRTu12f4-80" style="edgeStyle=orthogonalEdgeStyle;rounded=0;orthogonalLoop=1;jettySize=auto;html=1;entryX=0;entryY=0.5;entryDx=0;entryDy=0;exitX=0;exitY=0.5;exitDx=0;exitDy=0;endArrow=diamondThin;endFill=1;" edge="1" parent="WIyWlLk6GJQsqaUBKTNV-1" source="JVNppjv7HDDPwRTu12f4-70" target="JVNppjv7HDDPwRTu12f4-5">
          <mxGeometry relative="1" as="geometry" />
        </mxCell>
        <mxCell id="JVNppjv7HDDPwRTu12f4-70" value="CardPile" style="swimlane;fontStyle=1;align=center;verticalAlign=top;childLayout=stackLayout;horizontal=1;startSize=26;horizontalStack=0;resizeParent=1;resizeParentMax=0;resizeLast=0;collapsible=1;marginBottom=0;whiteSpace=wrap;html=1;" vertex="1" parent="WIyWlLk6GJQsqaUBKTNV-1">
          <mxGeometry x="93" y="880" width="160" height="120" as="geometry" />
        </mxCell>
        <mxCell id="JVNppjv7HDDPwRTu12f4-71" value="- cards: List&amp;lt;Card&amp;gt;" style="text;strokeColor=none;fillColor=none;align=left;verticalAlign=top;spacingLeft=4;spacingRight=4;overflow=hidden;rotatable=0;points=[[0,0.5],[1,0.5]];portConstraint=eastwest;whiteSpace=wrap;html=1;" vertex="1" parent="JVNppjv7HDDPwRTu12f4-70">
          <mxGeometry y="26" width="160" height="26" as="geometry" />
        </mxCell>
        <mxCell id="JVNppjv7HDDPwRTu12f4-72" value="" style="line;strokeWidth=1;fillColor=none;align=left;verticalAlign=middle;spacingTop=-1;spacingLeft=3;spacingRight=3;rotatable=0;labelPosition=right;points=[];portConstraint=eastwest;strokeColor=inherit;" vertex="1" parent="JVNppjv7HDDPwRTu12f4-70">
          <mxGeometry y="52" width="160" height="8" as="geometry" />
        </mxCell>
        <mxCell id="JVNppjv7HDDPwRTu12f4-73" value="+ removeCards()&lt;div&gt;+ addCard()&lt;/div&gt;&lt;div&gt;+ shuffle()&lt;/div&gt;" style="text;strokeColor=none;fillColor=none;align=left;verticalAlign=top;spacingLeft=4;spacingRight=4;overflow=hidden;rotatable=0;points=[[0,0.5],[1,0.5]];portConstraint=eastwest;whiteSpace=wrap;html=1;" vertex="1" parent="JVNppjv7HDDPwRTu12f4-70">
          <mxGeometry y="60" width="160" height="60" as="geometry" />
        </mxCell>
      </root>
    </mxGraphModel>
  </diagram>
</mxfile>
